<svg width="24" height="25" viewBox="0 0 24 25" fill="none" xmlns="http://www.w3.org/2000/svg">
  <path
    d="M12 22.9166C17.5228 22.9166 22 18.2528 22 12.4999C22 6.74695 17.5228 2.08325 12 2.08325C6.47715 2.08325 2 6.74695 2 12.4999C2 18.2528 6.47715 22.9166 12 22.9166Z"
    stroke="#000" strokeWidth="1.5" strokeLinecap="round" strokeLinejoin="round" />
  <path
    d="M14.3333 19.7917V17.851C14.3583 17.5286 14.3154 17.2045 14.2073 16.9002C14.0993 16.5959 13.9286 16.3184 13.7067 16.0863C15.8 15.8496 18 15.0449 18 11.353C17.9998 10.4089 17.6418 9.50105 17 8.8173C17.3039 7.99137 17.2824 7.07842 16.94 6.26812C16.94 6.26812 16.1533 6.03146 14.3333 7.26887C12.8053 6.84883 11.1947 6.84883 9.66666 7.26887C7.84666 6.03146 7.05999 6.26812 7.05999 6.26812C6.71757 7.07842 6.69609 7.99137 6.99999 8.8173C6.35341 9.50613 5.99501 10.4222 5.99999 11.3732C5.99999 15.0381 8.19999 15.8428 10.2933 16.1065C10.074 16.3364 9.90483 16.6105 9.79686 16.9111C9.68889 17.2117 9.64453 17.5319 9.66666 17.851V19.7917"
    stroke="#000" strokeWidth="1.5" strokeLinecap="round" strokeLinejoin="round" />
  <path d="M9.66667 18.4394C7.66667 19.0975 6 18.4394 5 16.4109" stroke="#000" strokeWidth="1.5" strokeLinecap="round"
    strokeLinejoin="round" />
</svg>