<svg width="25" height="25" viewBox="0 0 25 25" fill="none" xmlns="http://www.w3.org/2000/svg">
  <path
    d="M12.5 16.6666C14.8011 16.6666 16.6667 14.8011 16.6667 12.4999C16.6667 10.1987 14.8011 8.33325 12.5 8.33325C10.1988 8.33325 8.33334 10.1987 8.33334 12.4999C8.33334 14.8011 10.1988 16.6666 12.5 16.6666Z"
    stroke="#000" strokeWidth="1.5" strokeLinecap="round" strokeLinejoin="round" />
  <path
    d="M3.125 16.6667V8.33333C3.125 5.45685 5.45685 3.125 8.33333 3.125H16.6667C19.5431 3.125 21.875 5.45685 21.875 8.33333V16.6667C21.875 19.5431 19.5431 21.875 16.6667 21.875H8.33333C5.45685 21.875 3.125 19.5431 3.125 16.6667Z"
    stroke="#000" strokeWidth="1.5" />
  <path d="M18.2292 6.78089L18.2392 6.76978" stroke="#000" strokeWidth="1.5" strokeLinecap="round"
    strokeLinejoin="round" />
</svg>