<svg width="25" height="25" viewBox="0 0 25 25" fill="none" xmlns="http://www.w3.org/2000/svg">
  <path d="M14.5833 12.5001L10.9375 14.5834V10.4167L14.5833 12.5001Z" fill="#000" stroke="#000" strokeWidth="1.5"
    strokeLinecap="round" strokeLinejoin="round" />
  <path
    d="M2.08333 13.2369V11.7629C2.08333 8.74687 2.08333 7.23889 3.02655 6.26861C3.96978 5.29833 5.45475 5.25633 8.42468 5.17233C9.83201 5.13252 11.2696 5.104 12.5 5.104C13.7304 5.104 15.168 5.13252 16.5753 5.17233C19.5452 5.25633 21.0302 5.29833 21.9734 6.26861C22.9167 7.23889 22.9167 8.74687 22.9167 11.7629V13.2369C22.9167 16.2529 22.9167 17.7609 21.9734 18.7311C21.0302 19.7014 19.5453 19.7434 16.5754 19.8274C15.168 19.8672 13.7304 19.8958 12.5 19.8958C11.2696 19.8958 9.83195 19.8672 8.42458 19.8274C5.4547 19.7434 3.96976 19.7014 3.02654 18.7311C2.08333 17.7609 2.08333 16.2529 2.08333 13.2369Z"
    stroke="#000" strokeWidth="1.5" />
</svg>