<svg width="54" height="60" viewBox="0 0 54 60" fill="none" xmlns="http://www.w3.org/2000/svg">
<path d="M0.977905 0L5.79285 54.003L27.3978 60L49.0639 53.9937L53.8836 0H0.977905ZM43.88 12.3511L42.2515 30.6027L41.1236 43.1959L41.0249 44.3144L27.4401 48.0813L13.8742 44.3144L12.9459 33.9138H19.5938L20.0661 39.1963L27.4495 41.1867L27.4683 41.182H27.473L34.8376 39.194L35.6107 30.6051H20.1507L20.0191 29.1176L19.716 25.7596L19.5586 23.9831H36.1982L36.8045 17.2013H11.4585L11.3269 15.7114L11.0237 12.3534L10.8663 10.5769H44.0422L43.8824 12.3534L43.88 12.3511Z" fill="#AFAFAF"/>
</svg>
