<svg width="61" height="60" viewBox="0 0 61 60" fill="none" xmlns="http://www.w3.org/2000/svg">
<path d="M59.8466 27.3291L33.6488 1.13126C32.1404 -0.377087 29.693 -0.377087 28.1847 1.13126L22.7445 6.57142L29.6451 13.472C31.2492 12.9293 33.0875 13.2938 34.367 14.5707C35.6519 15.8556 36.0137 17.7124 35.4577 19.3219L42.1083 25.9724C43.7177 25.4164 45.5745 25.7756 46.8594 27.0631C48.6551 28.8588 48.6551 31.7691 46.8594 33.5647C45.0638 35.3604 42.1535 35.3604 40.3552 33.5647C39.0038 32.2133 38.6713 30.2288 39.3549 28.5635L33.1513 22.3598V38.683C33.5876 38.9011 34.0026 39.1884 34.367 39.5529C36.1627 41.3485 36.1627 44.2588 34.367 46.0571C32.5714 47.8528 29.6584 47.8528 27.8654 46.0571C26.0698 44.2588 26.0698 41.3485 27.8654 39.5529C28.3097 39.1086 28.8231 38.7734 29.3711 38.55V22.0752C28.8231 21.8517 28.3097 21.5192 27.8654 21.0723C26.5061 19.7129 26.1789 17.7151 26.8758 16.0471L20.0737 9.24228L2.10916 27.2041C0.600819 28.7151 0.600819 31.1625 2.10916 32.6709L28.3097 58.8687C29.818 60.3771 32.2628 60.3771 33.7738 58.8687L59.8493 32.7932C61.3577 31.2849 61.3577 28.8348 59.8493 27.3265L59.8466 27.3291Z" fill="#AFAFAF"/>
</svg>
