<svg width="60" height="61" viewBox="0 0 60 61" fill="none" xmlns="http://www.w3.org/2000/svg">
<path d="M0 0.5V60.5H60V0.5H0ZM32.1429 47.1071C32.1429 52.9478 28.6929 55.7951 23.6987 55.7951C19.1879 55.7951 16.5696 53.4594 15.2411 50.6402L19.8321 47.8612C20.7174 49.4321 21.3897 50.7607 23.3223 50.7607C24.9295 50.7607 26.25 50.0362 26.25 47.217V28.3571H32.1429V47.1071ZM45.4487 55.6612C40.2134 55.6612 36.8304 53.2987 35.179 50.0362L39.7768 47.375C40.9821 49.3491 42.5558 50.6643 45.3348 50.6643C47.6705 50.6643 49.0272 49.6304 49.0272 48.0192C49.0272 46.0866 47.6304 45.4022 45.0522 44.2692L43.6433 43.6638C39.5746 41.9335 36.8772 39.7585 36.8772 35.1661C36.8772 30.9379 40.0982 27.8496 45.1326 27.8496C48.7179 27.8496 51.2933 28.9638 53.1482 32.2263L48.75 35.0536C47.783 33.3219 46.7411 32.6429 45.1259 32.6429C43.4746 32.6429 42.4272 33.6902 42.4272 35.0536C42.4272 36.7451 43.4745 37.4295 45.8906 38.4768L47.2996 39.0808C52.0929 41.1353 54.7915 43.2326 54.7915 47.9415C54.7929 53.0174 50.8058 55.6612 45.4487 55.6612Z" fill="#AFAFAF"/>
</svg>
