<svg width="61" height="60" viewBox="0 0 61 60" fill="none" xmlns="http://www.w3.org/2000/svg">
<g clip-path="url(#clip0_12_11)">
<path d="M49.9857 20.7656C49.3529 20.5547 48.7201 20.3555 48.0873 20.168C48.1927 19.7344 48.2865 19.3008 48.3802 18.8672C49.8217 11.8828 48.8724 6.26953 45.6732 4.41797C42.5912 2.64844 37.5638 4.48828 32.4779 8.91797C31.974 9.35156 31.4818 9.80859 31.0131 10.2656C30.6967 9.96094 30.3685 9.65625 30.0404 9.36328C24.7084 4.62891 19.3646 2.63672 16.1654 4.5C13.0951 6.28125 12.181 11.5664 13.4701 18.1758C13.599 18.832 13.7396 19.4766 13.9037 20.1328C13.1537 20.3437 12.4154 20.5781 11.724 20.8242C5.46619 22.9922 0.977905 26.4141 0.977905 29.9531C0.977905 33.6094 5.75916 37.2773 12.2631 39.5039C12.7904 39.6797 13.3177 39.8555 13.8568 40.0078C13.681 40.7109 13.5287 41.4023 13.3881 42.1172C12.1576 48.6211 13.1185 53.7773 16.1888 55.5469C19.3529 57.375 24.6732 55.5 29.8529 50.9648C30.2631 50.6016 30.6732 50.2266 31.0834 49.8281C31.599 50.332 32.1381 50.8125 32.6771 51.2812C37.6927 55.5938 42.6498 57.3398 45.7084 55.5703C48.8724 53.7422 49.9037 48.1992 48.5677 41.4492C48.4623 40.9336 48.3451 40.4062 48.2162 39.8672C48.5912 39.7617 48.9545 39.6445 49.3177 39.5273C56.0795 37.2891 60.9779 33.668 60.9779 29.9531C60.9779 26.4023 56.3607 22.957 49.9857 20.7656ZM34.1302 10.8164C38.4896 7.01953 42.556 5.53125 44.4076 6.59766C46.3881 7.73437 47.1498 12.3281 45.9076 18.3633C45.8256 18.7617 45.7435 19.1484 45.6381 19.5352C43.0365 18.9492 40.3998 18.5273 37.7513 18.293C36.2279 16.1133 34.5638 14.0273 32.7592 12.0703C33.2162 11.6367 33.6615 11.2266 34.1302 10.8164ZM20.5717 36.0352C21.1693 37.0547 21.7787 38.0742 22.4232 39.0703C20.5951 38.8711 18.7787 38.5781 16.9857 38.1914C17.5013 36.5039 18.1459 34.7578 18.8959 32.9766C19.4349 34.0078 19.9857 35.0273 20.5717 36.0352ZM17.0209 21.9375C18.7084 21.5625 20.5013 21.2578 22.3646 21.0234C21.7435 21.9961 21.1342 22.9922 20.5599 24C19.9857 24.9961 19.4232 26.0156 18.8959 27.0469C18.1576 25.3008 17.5365 23.5898 17.0209 21.9375ZM20.2318 30.0117C21.0052 28.3945 21.849 26.8125 22.7396 25.2539C23.6302 23.6953 24.5912 22.1836 25.599 20.6953C27.3568 20.5664 29.1498 20.4961 30.9779 20.4961C32.806 20.4961 34.6107 20.5664 36.3568 20.6953C37.3529 22.1719 38.3021 23.6836 39.2045 25.2305C40.1068 26.7773 40.9506 28.3594 41.7474 29.9648C40.9623 31.582 40.1185 33.1758 39.2162 34.7461C38.3256 36.3047 37.3763 37.8164 36.3802 39.3164C34.6342 39.4453 32.8177 39.5039 30.9779 39.5039C29.1381 39.5039 27.3568 39.4453 25.6342 39.3398C24.6146 37.8516 23.6537 36.3281 22.7513 34.7695C21.849 33.2109 21.017 31.6289 20.2318 30.0117ZM41.3959 36.0117C41.9935 34.9805 42.556 33.9375 43.1068 32.8828C43.8568 34.582 44.5131 36.3047 45.0873 38.0742C43.2709 38.4844 41.431 38.8008 39.5795 39.0117C40.2123 38.0273 40.8099 37.0195 41.3959 36.0117ZM43.0834 27.0469C42.5326 26.0156 41.9701 24.9844 41.3842 23.9766C40.8099 22.9805 40.2123 21.9961 39.5912 21.0234C41.4779 21.2578 43.2826 21.5742 44.9701 21.9609C44.431 23.6953 43.7982 25.3828 43.0834 27.0469ZM31.0013 13.8633C32.2318 15.1992 33.392 16.6055 34.4701 18.0586C32.1498 17.9531 29.8177 17.9531 27.4974 18.0586C28.6459 16.5469 29.8295 15.1406 31.0013 13.8633ZM17.4076 6.67969C19.3763 5.53125 23.7474 7.17187 28.3529 11.25C28.6459 11.5078 28.9388 11.7891 29.2435 12.0703C27.4271 14.0273 25.7513 16.1133 24.2162 18.293C21.5677 18.5273 18.9427 18.9375 16.3412 19.5117C16.1888 18.9141 16.0599 18.3047 15.931 17.6953C14.8295 12.0234 15.556 7.74609 17.4076 6.67969ZM14.5365 37.5703C14.0443 37.4297 13.5638 37.2773 13.0834 37.1133C10.5873 36.3281 7.75134 35.0859 5.70056 33.457C4.51697 32.6367 3.72009 31.3711 3.49744 29.9531C3.49744 27.8086 7.20056 25.0664 12.5443 23.2031C13.2123 22.9687 13.892 22.7578 14.5717 22.5586C15.3685 25.1016 16.3295 27.5977 17.4427 30.0117C16.3177 32.4609 15.3451 34.9922 14.5365 37.5703ZM28.2006 49.0547C26.267 50.8242 24.0287 52.2305 21.5912 53.1914C20.2904 53.8125 18.7904 53.8711 17.4545 53.3438C15.5912 52.2656 14.8177 48.1289 15.8724 42.5625C16.0013 41.9062 16.142 41.25 16.306 40.6055C18.931 41.168 21.5795 41.5547 24.2631 41.7539C25.8099 43.9453 27.5092 46.043 29.3256 48.0117C28.9506 48.375 28.5756 48.7266 28.2006 49.0547ZM31.0717 46.207C29.8763 44.918 28.681 43.4883 27.5209 41.9531C28.6459 42 29.806 42.0234 30.9779 42.0234C32.1849 42.0234 33.3685 42 34.5404 41.9414C33.4623 43.4297 32.3021 44.8477 31.0717 46.207ZM46.3881 49.7227C46.2826 51.1523 45.5795 52.4883 44.4545 53.3906C42.5912 54.4688 38.6185 53.0625 34.3295 49.3828C33.8373 48.9609 33.3451 48.5039 32.8412 48.0352C34.6342 46.0547 36.2865 43.957 37.7865 41.7539C40.4701 41.5312 43.142 41.1211 45.7787 40.5234C45.8959 41.0039 46.0013 41.4844 46.0951 41.9531C46.6693 44.4844 46.7631 47.1211 46.3881 49.7227ZM48.5209 37.125C48.1927 37.2305 47.8646 37.3359 47.5248 37.4297C46.7045 34.875 45.6967 32.3789 44.5365 29.9531C45.6615 27.5625 46.6107 25.1016 47.4076 22.582C48.017 22.7578 48.6029 22.9453 49.1654 23.1328C54.6263 25.0078 58.4584 27.7969 58.4584 29.9297C58.4584 32.2266 54.3685 35.1914 48.5209 37.125ZM30.9779 35.3672C33.9427 35.3672 36.3451 32.9648 36.3451 30C36.3451 27.0352 33.9427 24.6328 30.9779 24.6328C28.0131 24.6328 25.6107 27.0352 25.6107 30C25.6107 32.9648 28.0131 35.3672 30.9779 35.3672Z" fill="#AFAFAF"/>
</g>
<defs>
<clipPath id="clip0_12_11">
<rect width="60" height="60" fill="white" transform="translate(0.977905)"/>
</clipPath>
</defs>
</svg>
