<svg width="60" height="45" viewBox="0 0 60 45" fill="none" xmlns="http://www.w3.org/2000/svg">
  <path
    d="M59.3048 31.6769C59.1004 29.9687 58.221 28.6431 56.8935 27.6044C55.356 26.4025 53.556 25.9075 51.6379 25.8287C50.0742 25.765 48.5442 25.9975 47.0685 26.5337C46.6485 26.6856 46.236 26.8656 45.8123 27.0362C45.756 26.9331 45.696 26.8356 45.6473 26.7325C45.2123 25.8437 44.6873 24.9944 44.5729 23.9762C44.4904 23.2525 44.3892 22.5287 44.5617 21.8144C44.7267 21.1262 44.9442 20.4494 45.1467 19.7687C45.2517 19.4181 45.1786 19.2231 44.8448 19.0656C44.7285 19.0112 44.6029 18.9625 44.4754 18.9437C43.6542 18.8256 42.846 18.8931 42.051 19.1237C41.7698 19.2062 41.5654 19.3637 41.5035 19.675C41.4679 19.8531 41.3948 20.0237 41.346 20.2C41.1379 20.9331 40.9917 21.6794 40.656 22.3769C39.8142 24.1281 38.856 25.8119 37.8717 27.4844C37.7648 27.6644 37.6542 27.8425 37.5192 28.0619C37.1742 27.34 36.8067 26.6931 36.6942 25.9319C36.5685 25.0731 36.4692 24.2162 36.6829 23.3631C36.8423 22.7275 37.0504 22.1031 37.2417 21.4769C37.3335 21.1787 37.2904 21.0231 37.0204 20.8656C36.8835 20.7869 36.7298 20.7156 36.576 20.6931C35.7248 20.5675 34.8867 20.6331 34.0673 20.8994C33.8123 20.9819 33.6792 21.1469 33.6004 21.4094C33.3717 22.1838 33.1767 22.9769 32.856 23.7137C31.5548 26.695 30.2179 29.6612 28.881 32.6256C28.6017 33.2444 28.2754 33.8425 27.9604 34.4444C27.8798 34.5981 27.7654 34.7312 27.666 34.8756C27.5854 34.7819 27.5554 34.7162 27.5554 34.6525C27.5573 34.2719 27.5123 33.8781 27.5854 33.5106C27.8048 32.3969 28.0579 31.2869 28.326 30.1825C28.5454 29.2712 28.8023 28.3675 29.0479 27.46C29.1304 27.1562 29.1323 26.8731 28.9129 26.6181C28.5473 26.1906 27.7823 26.0969 27.3285 26.4269C27.2798 26.4625 27.2217 26.4869 27.1279 26.5413C27.1448 26.3969 27.1542 26.3069 27.1673 26.2169C27.2629 25.5231 27.2817 24.8331 27.0923 24.1487C26.8542 23.2975 26.2485 22.8081 25.3654 22.8344C24.9529 22.8475 24.5217 22.9169 24.141 23.0669C22.5379 23.695 21.306 24.8069 20.2579 26.1456C20.1623 26.2675 20.0367 26.3781 19.9035 26.4512C18.5479 27.2031 17.1867 27.9456 15.8273 28.6919C15.3192 28.9694 14.811 29.2487 14.3142 29.5206C13.9092 29.1325 13.5398 28.7312 13.1198 28.39C11.841 27.3475 10.5417 26.3312 9.25542 25.3C8.11542 24.3869 7.00917 23.4344 6.16355 22.225C5.53355 21.325 5.12855 20.3406 5.09105 19.2269C5.0423 17.8094 5.44355 16.5137 6.16542 15.3062C7.0898 13.7631 8.34792 12.5256 9.73355 11.4025C11.1979 10.2156 12.7823 9.20875 14.4248 8.29C16.7217 7.00375 19.086 5.86562 21.6192 5.11375C24.2179 4.34312 26.8523 3.9025 29.571 4.21C30.6398 4.33 31.6767 4.57562 32.6311 5.09875C33.3604 5.49812 33.9585 6.02125 34.2379 6.84062C34.5117 7.64687 34.5042 8.4625 34.3129 9.28C33.9267 10.9356 33.0192 12.3025 31.8773 13.5231C30.006 15.5237 27.7223 16.885 25.1498 17.785C23.6667 18.3044 22.1404 18.6306 20.5729 18.7619C19.2942 18.8687 18.0417 18.7562 16.8304 18.31C16.0279 18.0156 15.3304 17.5637 14.7679 16.9094C14.6667 16.7912 14.5392 16.6656 14.3517 16.7744C14.1679 16.8812 14.136 17.0575 14.1979 17.2337C14.301 17.5281 14.3948 17.8319 14.556 18.0944C14.9573 18.7525 15.5442 19.2306 16.1892 19.6412C17.4285 20.4287 18.8123 20.6931 20.2485 20.755C22.4273 20.8487 24.5535 20.5244 26.6479 19.9394C29.6404 19.105 32.241 17.6312 34.3279 15.3062C36.066 13.3712 37.3054 11.185 37.5717 8.54687C37.701 7.25875 37.5642 5.99687 36.9604 4.82312C36.306 3.55 35.2673 2.6725 34.0242 2.02187C32.2167 1.07312 30.2629 0.699998 28.2473 0.591248C27.5742 0.591248 26.901 0.591248 26.2279 0.591248C23.7848 0.709373 21.4242 1.22312 19.1292 2.0575C17.3929 2.68937 15.6885 3.40187 14.0348 4.22687C10.4329 6.02687 7.07855 8.17937 4.32417 11.1625C2.95167 12.6494 1.78917 14.2806 1.12167 16.2119C0.926672 16.7781 0.806672 17.3781 0.666047 17.9631C0.654797 18.0119 0.709172 18.0587 0.589172 18.1075C0.589172 18.3831 0.589172 18.6569 0.589172 18.9325C0.709172 19.1444 0.722297 19.3544 0.776672 19.5662C1.13105 20.9406 1.86042 22.1219 2.76417 23.1981C4.0523 24.7319 5.61042 25.9656 7.22667 27.1281C8.6273 28.135 10.0485 29.1194 11.4548 30.1187C11.6967 30.2894 11.9198 30.4881 12.1823 30.6981C11.9573 30.82 11.7679 30.9269 11.5729 31.0262C9.71667 31.9675 7.93167 33.0231 6.28542 34.3019C5.29355 35.0725 4.33355 35.8919 3.65667 36.9606C2.5673 38.6819 2.18105 40.5156 2.99292 42.4731C3.23105 43.045 3.59292 43.54 4.10292 43.9037C4.26792 44.0219 4.45355 44.14 4.64667 44.185C5.14167 44.3012 5.64792 44.3781 6.15042 44.47C6.6248 44.47 7.0973 44.47 7.57167 44.47C9.1448 44.3294 10.5754 43.7912 11.8673 42.8987C13.8885 41.5037 15.2498 39.6344 15.8367 37.2325C16.2623 35.4887 16.2792 33.7413 15.7785 32.005C15.7317 31.8438 15.6735 31.6862 15.6117 31.5306C15.5498 31.375 15.4785 31.2231 15.3942 31.0281C16.4667 30.4113 17.5429 29.7925 18.6173 29.1737C18.6342 29.1869 18.6492 29.2019 18.666 29.215C18.6079 29.4062 18.546 29.5975 18.4917 29.7925C18.1092 31.1912 17.8542 32.6144 17.946 34.0656C18.0435 35.6125 18.4748 37.06 19.3804 38.3537C20.1117 39.4 21.8573 39.4375 22.6354 38.3894C22.911 38.0163 23.1792 37.6281 23.3798 37.2119C23.9048 36.1263 24.3923 35.0219 24.8929 33.925C24.9154 33.8781 24.9342 33.8313 24.981 33.7244C24.9454 34.2438 24.9023 34.6994 24.8835 35.1569C24.8535 35.8694 24.8948 36.5781 25.1385 37.2569C25.3467 37.8381 25.701 38.2713 26.3667 38.3463C26.8204 38.3988 27.1842 38.1906 27.5179 37.9262C28.041 37.5137 28.4648 37.0056 28.7798 36.4262C29.6704 34.7894 30.5854 33.1637 31.3935 31.4856C32.2673 29.6706 33.0304 27.8031 33.8423 25.9581C33.8873 25.8569 33.9267 25.7537 33.9773 25.63C34.1685 26.3837 34.3035 27.1206 34.5492 27.82C34.8342 28.63 35.1885 29.4212 35.5748 30.19C35.7567 30.5537 35.736 30.79 35.4829 31.0938C34.4254 32.3687 33.3867 33.6587 32.346 34.9487C32.1154 35.2337 31.8867 35.5225 31.6954 35.8338C31.5792 36.0231 31.5023 36.2519 31.4704 36.4731C31.4085 36.895 31.6673 37.3 32.1192 37.3975C32.5298 37.4856 32.9685 37.5194 33.3885 37.4875C34.8398 37.3806 36.1579 36.8706 37.3242 36.0081C38.8335 34.8887 39.3192 33.3644 38.9535 31.555C38.8542 31.0637 38.6798 30.5856 38.5092 30.1131C38.4323 29.8994 38.4285 29.7494 38.5673 29.5506C39.7748 27.8275 40.806 25.9975 41.7642 24.1281C41.8017 24.055 41.841 23.98 41.9067 23.9012C42.2179 25.5194 42.6848 27.0775 43.5229 28.4912C43.0954 28.9037 42.6717 29.2769 42.2892 29.6894C41.4454 30.595 40.7142 31.5812 40.3335 32.7812C40.1704 33.2987 40.0429 33.8237 40.116 34.3787C40.2304 35.2375 40.9335 35.7944 41.7773 35.5994C43.5829 35.1813 45.1429 34.33 46.2829 32.8225C47.0498 31.8081 47.1192 30.6756 46.7985 29.4887C46.7104 29.1662 46.6054 28.8494 46.4929 28.4781C46.9392 28.3394 47.3742 28.1744 47.8223 28.0712C50.1567 27.5387 52.4648 27.6325 54.7129 28.4744C56.0254 28.9656 57.0867 29.7906 57.7148 31.0862C58.4835 32.6706 58.0579 34.1725 56.5654 35.1737C56.4267 35.2675 56.2673 35.3406 56.151 35.4569C56.0798 35.5281 56.0385 35.6725 56.0554 35.77C56.0648 35.8281 56.2185 35.8994 56.3048 35.8994C56.796 35.8956 57.1935 35.6387 57.576 35.3744C58.5342 34.7125 59.166 33.82 59.316 32.6481C59.3198 32.6144 59.271 32.5825 59.391 32.5506C59.391 32.29 59.391 32.0313 59.391 31.7706C59.271 31.7388 59.3217 31.7069 59.3179 31.6731L59.3048 31.6769ZM13.6392 34.8456C13.4835 36.9362 12.5367 38.6312 10.9879 40.0019C10.116 40.7744 9.11855 41.3237 7.95417 41.5169C7.5323 41.5862 7.10105 41.6031 6.69042 41.4287C6.1073 41.1794 5.97605 40.6619 5.9648 40.1087C5.94792 39.2294 6.25542 38.4344 6.6773 37.6787C7.22855 36.6925 8.03667 35.9406 8.89917 35.2394C10.2585 34.1331 11.7342 33.1956 13.2435 32.3125C13.2679 32.2975 13.2979 32.29 13.3579 32.2656C13.5904 33.1281 13.7029 33.9794 13.6373 34.8475L13.6392 34.8456ZM25.4329 25.7612C25.3223 26.4287 25.1854 27.0962 24.9904 27.7431C24.3154 29.9819 23.451 32.1531 22.5154 34.2925C22.3429 34.6881 22.0917 35.05 21.8723 35.425C21.8385 35.4831 21.7879 35.5337 21.7392 35.5825C21.4692 35.8506 21.2104 35.8356 21.0735 35.485C20.9142 35.0781 20.8167 34.6431 20.7323 34.2119C20.676 33.9231 20.6892 33.6194 20.6723 33.3231C20.691 31.2175 21.3323 29.3012 22.4235 27.52C22.8735 26.785 23.3629 26.0856 24.1092 25.6187C24.3398 25.4762 24.5967 25.3619 24.8573 25.2869C25.2548 25.1744 25.5004 25.36 25.4348 25.7594L25.4329 25.7612ZM33.4785 36.0119C34.4423 34.8869 35.4042 33.7637 36.3698 32.635C36.4898 33.8894 34.3598 36.3925 33.4785 36.0119ZM42.7148 33.7412C42.5104 33.8575 42.2873 33.9437 42.0773 34.0506C41.886 34.15 41.8223 34.0506 41.8167 33.8856C41.8129 33.7731 41.8298 33.6569 41.8598 33.5481C42.2498 32.17 42.9679 30.9962 44.0385 30.04C44.0535 30.025 44.0779 30.0194 44.1135 30.0006C44.6217 31.4219 44.0348 32.9856 42.7129 33.7412H42.7148Z"
    fill="#AFAFAF" />
</svg>