<svg width="61" height="60" viewBox="0 0 61 60" fill="none" xmlns="http://www.w3.org/2000/svg">
<g clip-path="url(#clip0_12_17)">
<path d="M30.9804 12C22.9804 12 17.9804 16 15.9804 24C18.9804 20 22.4804 18.5 26.4804 19.5C28.7629 20.07 30.3929 21.725 32.2004 23.56C35.1429 26.545 38.5454 30 45.9804 30C53.9804 30 58.9804 26 60.9804 18C57.9804 22 54.4804 23.5 50.4804 22.5C48.1979 21.93 46.5679 20.275 44.7604 18.44C41.8204 15.455 38.4179 12 30.9804 12ZM15.9804 30C7.98041 30 2.98041 34 0.980408 42C3.98041 38 7.48041 36.5 11.4804 37.5C13.7629 38.07 15.3929 39.725 17.2004 41.56C20.1429 44.545 23.5454 48 30.9804 48C38.9804 48 43.9804 44 45.9804 36C42.9804 40 39.4804 41.5 35.4804 40.5C33.1979 39.93 31.5679 38.275 29.7604 36.44C26.8204 33.455 23.4179 30 15.9804 30Z" fill="#AFAFAF"/>
</g>
<defs>
<clipPath id="clip0_12_17">
<rect width="60" height="60" fill="white" transform="translate(0.977905)"/>
</clipPath>
</defs>
</svg>
