<svg width="61" height="60" viewBox="0 0 61 60" fill="none" xmlns="http://www.w3.org/2000/svg">
<g clip-path="url(#clip0_12_15)">
<path d="M3.79041 0C2.23291 0 0.977905 1.255 0.977905 2.8125V57.1875C0.977905 58.745 2.23291 60 3.79041 60H58.1654C59.7229 60 60.9779 58.745 60.9779 57.1875V2.8125C60.9779 1.255 59.7229 0 58.1654 0H3.79041ZM47.1979 24.375C48.7279 24.375 50.0829 24.4675 51.2654 24.6525C52.3807 24.8196 53.4752 25.1045 54.5304 25.5025V31.6475C54.0239 31.2972 53.4857 30.9951 52.9229 30.745C52.3425 30.4838 51.7433 30.2666 51.1304 30.095C49.9694 29.7715 48.7706 29.6033 47.5654 29.595C46.8154 29.595 46.1329 29.665 45.5179 29.81C44.9698 29.9272 44.4439 30.1315 43.9604 30.415C43.5354 30.675 43.2104 30.9875 42.9779 31.35C42.7441 31.7154 42.6224 32.1412 42.6279 32.575C42.6279 33.065 42.7604 33.5075 43.0179 33.8975C43.2779 34.2875 43.6479 34.6575 44.1254 35.0075C44.6029 35.3575 45.1829 35.6975 45.8654 36.0325C46.5479 36.37 47.3204 36.7175 48.1804 37.0725C49.3554 37.565 50.4104 38.09 51.3454 38.6425C52.2804 39.1975 53.0829 39.825 53.7529 40.525C54.4229 41.2225 54.9329 42.02 55.2879 42.9175C55.6429 43.815 55.8229 44.8575 55.8229 46.05C55.8229 47.6925 55.5104 49.075 54.8904 50.19C54.2846 51.2897 53.4153 52.2217 52.3604 52.9025C51.2234 53.6235 49.9631 54.1286 48.6429 54.3925C47.2279 54.6925 45.7354 54.8425 44.1679 54.8425C42.6252 54.8493 41.0851 54.712 39.5679 54.4325C38.2552 54.2055 36.9821 53.7904 35.7879 53.2V46.625C38.0474 48.5478 40.9136 49.6104 43.8804 49.625C44.7129 49.625 45.4404 49.55 46.0604 49.4C46.6829 49.25 47.2004 49.04 47.6179 48.775C48.0329 48.505 48.3429 48.19 48.5504 47.825C48.7797 47.4 48.8841 46.9188 48.8513 46.437C48.8186 45.9552 48.6501 45.4925 48.3654 45.1025C47.994 44.611 47.5397 44.188 47.0229 43.8525C46.382 43.4277 45.7073 43.0564 45.0054 42.7425C44.1735 42.3626 43.3342 41.9992 42.4879 41.6525C40.1929 40.695 38.4829 39.5225 37.3554 38.14C36.2304 36.7575 35.6654 35.085 35.6654 33.1275C35.6654 31.5925 35.9729 30.275 36.5879 29.1725C37.2029 28.07 38.0379 27.1625 39.0979 26.45C40.2191 25.7104 41.4638 25.1778 42.7729 24.8775C44.2229 24.5356 45.7082 24.367 47.1979 24.375ZM9.41541 24.845H33.3229V30.26H24.7429V54.375H17.9504V30.26H9.41541V24.845Z" fill="#AFAFAF"/>
</g>
<defs>
<clipPath id="clip0_12_15">
<rect width="60" height="60" fill="white" transform="translate(0.977905)"/>
</clipPath>
</defs>
</svg>
