<svg width="61" height="60" viewBox="0 0 61 60" fill="none" xmlns="http://www.w3.org/2000/svg">
<g clip-path="url(#clip0_12_13)">
<path d="M21.6929 26.445L22.9729 4.80251C22.9831 4.63316 23.0493 4.472 23.1611 4.34438C23.2728 4.21676 23.4239 4.12991 23.5904 4.09751L44.4204 0.0150092C44.5491 -0.010254 44.682 -0.00203235 44.8066 0.0388854C44.9311 0.0798032 45.0431 0.152044 45.1317 0.248676C45.2203 0.345308 45.2826 0.463088 45.3125 0.590715C45.3425 0.718343 45.3392 0.851534 45.3029 0.977509L41.4079 14.485C41.3718 14.6107 41.3685 14.7437 41.3984 14.871C41.4282 14.9984 41.4903 15.116 41.5785 15.2125C41.6668 15.3091 41.7784 15.3814 41.9026 15.4225C42.0268 15.4637 42.1594 15.4723 42.2879 15.4475L48.2579 14.2975C48.3984 14.27 48.5437 14.2825 48.6775 14.3336C48.8112 14.3846 48.9279 14.4721 49.0144 14.5862C49.1008 14.7002 49.1536 14.8363 49.1666 14.9788C49.1796 15.1214 49.1523 15.2647 49.0879 15.3925L32.1129 49.2675L31.8054 49.7425C31.7393 49.85 31.6466 49.9387 31.5362 50C31.4259 50.0613 31.3016 50.0932 31.1754 50.0925C30.7329 50.0925 30.3004 49.7125 30.4129 49.17L33.1504 35.9175C33.1773 35.7877 33.17 35.6531 33.1292 35.527C33.0884 35.4009 33.0155 35.2875 32.9177 35.198C32.8199 35.1085 32.7005 35.046 32.5713 35.0165C32.442 34.9871 32.3073 34.9917 32.1804 35.03L28.5979 36.1175C28.4711 36.1562 28.3364 36.1612 28.207 36.1321C28.0777 36.103 27.9581 36.0408 27.86 35.9515C27.762 35.8623 27.6888 35.7491 27.6476 35.623C27.6065 35.497 27.5988 35.3624 27.6254 35.2325L29.3504 26.795C29.3766 26.669 29.3705 26.5385 29.3328 26.4155C29.2952 26.2925 29.2271 26.1809 29.1349 26.0912C29.0426 26.0015 28.9293 25.9365 28.8053 25.9022C28.6813 25.8679 28.5506 25.8654 28.4254 25.895L22.6254 27.235C22.5097 27.2616 22.3893 27.2609 22.2739 27.2329C22.1584 27.2049 22.0511 27.1504 21.9604 27.0738C21.8697 26.9971 21.798 26.9004 21.7512 26.7913C21.7043 26.6821 21.6835 26.5636 21.6904 26.445H21.6929ZM59.1329 6.63001L44.1879 9.35001L42.8279 14.0675L48.0204 13.0675C48.4228 12.9873 48.8401 13.0328 49.2158 13.1978C49.5914 13.3628 49.9073 13.6394 50.1204 13.99C50.3013 14.2816 50.4041 14.6148 50.419 14.9576C50.4339 15.3005 50.3604 15.6413 50.2054 15.9475L33.2279 49.825L33.1954 49.8875L33.1579 49.945L32.8529 50.42C32.6726 50.7024 32.4244 50.9351 32.1308 51.0967C31.8373 51.2583 31.508 51.3437 31.1729 51.345C30.8695 51.3433 30.5701 51.2748 30.2962 51.1443C30.0222 51.0138 29.7804 50.8246 29.5879 50.59C29.4007 50.3582 29.2676 50.0876 29.1984 49.7978C29.1292 49.508 29.1256 49.2064 29.1879 48.915L31.7604 36.4625L28.9604 37.3125C28.5774 37.4279 28.1688 37.4272 27.7862 37.3107C27.4036 37.1941 27.064 36.9668 26.8104 36.6575C26.6213 36.4266 26.4862 36.1564 26.4148 35.8666C26.3434 35.5769 26.3377 35.2748 26.3979 34.9825L27.9729 27.2825L22.9054 28.4525C22.5624 28.5311 22.2047 28.5187 21.868 28.4165C21.5312 28.3143 21.227 28.1259 20.9854 27.87C20.7981 27.6697 20.6535 27.4335 20.5602 27.1757C20.467 26.9178 20.4271 26.6437 20.4429 26.37L21.4154 9.94501L2.81541 6.62001C2.52883 6.56829 2.23344 6.59943 1.96395 6.70978C1.69446 6.82012 1.46205 7.00508 1.29403 7.24293C1.12602 7.48078 1.02937 7.76164 1.01544 8.05251C1.00151 8.34339 1.07088 8.63219 1.21541 8.88501L29.9279 59.2275C30.062 59.4631 30.2564 59.6589 30.491 59.7948C30.7257 59.9306 30.9922 60.0016 31.2633 60.0006C31.5345 59.9996 31.8004 59.9266 32.0341 59.789C32.2677 59.6514 32.4606 59.4541 32.5929 59.2175L60.7429 8.88001C60.884 8.62674 60.9502 8.3386 60.9339 8.04914C60.9176 7.75967 60.8193 7.48082 60.6506 7.24504C60.4819 7.00926 60.2497 6.82627 59.981 6.71739C59.7123 6.6085 59.4182 6.5782 59.1329 6.63001Z" fill="#AFAFAF"/>
</g>
<defs>
<clipPath id="clip0_12_13">
<rect width="60" height="60" fill="white" transform="translate(0.977905)"/>
</clipPath>
</defs>
</svg>
